<svg width="796" height="567" viewBox="0 0 796 567" fill="none" xmlns="http://www.w3.org/2000/svg">
<path fill-rule="evenodd" clip-rule="evenodd" d="M383.182 33.6953C391.822 28.7785 394.841 17.7885 389.924 9.14838C385.007 0.508272 374.017 -2.5101 365.377 2.40667L362.889 3.8225C354.249 8.73926 351.23 19.7293 356.147 28.3694C361.064 37.0095 372.054 40.0279 380.694 35.1111L383.182 33.6953ZM201.479 43.9715C206.037 54.3354 201.33 66.4319 190.966 70.9897L154.569 86.9965C144.205 91.5543 132.109 86.8476 127.551 76.4837C122.993 66.1198 127.7 54.0233 138.064 49.4655L174.461 33.4587C184.825 28.9009 196.921 33.6076 201.479 43.9715ZM358.247 62.4967C351.995 65.6639 344.317 61.1864 341.255 54.8823C332.341 36.5314 310.239 28.8808 291.888 37.7943L82.6909 139.406C64.34 148.319 56.6894 170.422 65.6028 188.772C67.8928 193.487 71.0532 197.495 74.7968 200.698C79.2575 204.514 83.8145 208.41 86.6653 213.542C94.6168 227.854 89.2102 245.907 74.7002 253.493L26.3943 278.747C3.14615 290.902 -5.84726 319.601 6.3069 342.849C18.4611 366.097 47.1603 375.09 70.4084 362.936L74.1116 361C86.5394 354.503 101.881 359.211 108.525 371.561C115.178 383.926 110.595 399.361 98.2987 406.139C69.1823 422.187 58.5883 458.8 74.6364 487.916C90.6845 517.033 127.298 527.627 156.414 511.579L232.374 469.712C243.425 463.621 257.323 467.79 263.198 478.957C266.966 486.12 266.19 494.652 263.832 502.394C260.217 514.263 261.19 527.521 267.6 539.274C280.263 562.491 309.35 571.047 332.567 558.384L506.925 463.287C513.445 459.731 521.612 462.174 525.109 468.725C527.504 473.214 526.935 478.602 525.005 483.309C521.1 492.833 521.339 503.966 526.612 513.729C535.948 531.014 557.529 537.458 574.814 528.122L730.433 444.072C747.719 434.736 754.163 413.155 744.827 395.869C740.622 388.085 733.935 382.499 726.274 379.563C721.114 377.586 716.184 374.544 713.582 369.668C709.211 361.479 712.256 351.297 720.406 346.852L732.112 340.468C755.329 327.805 763.885 298.718 751.222 275.501C746.027 265.977 738.068 258.919 728.884 254.783C720.671 251.083 712.595 246.156 708.402 238.184C701.416 224.903 706.343 208.475 719.485 201.231L763.966 176.715C793.082 160.667 803.676 124.054 787.628 94.9371C771.58 65.8206 734.967 55.2266 705.85 71.2747L654.861 99.3782C641.961 106.489 623.213 93.5098 616.06 80.6326C602.239 55.7529 570.866 46.7879 545.986 60.6088L522.697 73.5463C515.424 77.5865 506.252 74.924 502.273 67.6176C498.625 60.9197 501.086 52.6485 504.642 45.9012C508.77 38.0678 509.165 28.42 504.859 19.9201C497.803 5.98992 480.789 0.418015 466.859 7.47488L358.247 62.4967ZM722.229 517.399C732.291 512.208 736.24 499.843 731.049 489.781C725.858 479.72 713.493 475.771 703.432 480.962L668.095 499.192C658.034 504.383 654.085 516.748 659.276 526.81C664.467 536.871 676.831 540.82 686.893 535.629L722.229 517.399ZM495.494 562.426C506.877 555.948 510.854 541.469 504.376 530.086C497.898 518.703 483.419 514.727 472.036 521.204L469.548 522.62C458.165 529.098 454.189 543.577 460.667 554.96C467.144 566.342 481.623 570.319 493.006 563.841L495.494 562.426ZM768.912 209.145C773.828 217.785 770.81 228.775 762.17 233.692L759.682 235.107C751.042 240.024 740.052 237.006 735.135 228.366C730.218 219.726 733.237 208.736 741.877 203.819L744.365 202.403C753.005 197.486 763.995 200.505 768.912 209.145Z" fill="#FF4A4A"/>
</svg>
