<svg width="720" height="514" viewBox="0 0 720 514" fill="none" xmlns="http://www.w3.org/2000/svg">
<path fill-rule="evenodd" clip-rule="evenodd" d="M346.146 30.9241C353.967 26.4734 356.699 16.5251 352.248 8.70405C347.798 0.882962 337.849 -1.84929 330.028 2.6014L327.775 3.88381C319.954 8.3345 317.221 18.2827 321.672 26.1038C326.123 33.9249 336.071 36.6572 343.892 32.2065L346.146 30.9241ZM323.572 56.9953C317.913 59.8622 310.963 55.8092 308.191 50.1028C300.123 33.4914 280.116 26.5661 263.504 34.6346L74.1373 126.614C57.526 134.683 50.6006 154.69 58.6691 171.301C60.7419 175.569 63.6027 179.197 66.9913 182.096C71.0291 185.55 75.1541 189.077 77.7346 193.722C84.9324 206.678 80.0383 223.02 66.9036 229.887L23.177 252.747C2.13263 263.749 -6.00827 289.728 4.99377 310.772C15.9958 331.817 41.9745 339.958 63.0189 328.956L66.3713 327.203C77.621 321.321 91.5087 325.583 97.523 336.762C103.544 347.955 99.3962 361.928 88.2654 368.063C61.9089 382.589 52.3192 415.732 66.846 442.088C81.3729 468.445 114.515 478.035 140.872 463.508L209.631 425.61C219.635 420.096 232.216 423.87 237.533 433.979C240.944 440.462 240.241 448.185 238.107 455.194C234.835 465.938 235.716 477.939 241.519 488.578C252.981 509.594 279.31 517.339 300.327 505.876L458.157 419.794C464.058 416.575 471.452 418.786 474.617 424.716C476.785 428.779 476.27 433.657 474.523 437.918C470.988 446.538 471.204 456.616 475.977 465.454C484.428 481.101 503.964 486.934 519.61 478.483L660.478 402.4C676.125 393.949 681.958 374.414 673.507 358.767C669.701 351.72 663.647 346.664 656.713 344.007C652.042 342.216 647.58 339.463 645.224 335.05C641.268 327.636 644.024 318.42 651.401 314.396L661.998 308.617C683.014 297.154 690.759 270.825 679.296 249.809C674.594 241.187 667.389 234.799 659.076 231.054C651.641 227.705 644.331 223.245 640.535 216.029C634.211 204.007 638.672 189.136 650.568 182.579L690.832 160.386C717.189 145.859 726.778 112.717 712.252 86.3606C697.725 60.0041 664.582 50.4144 638.226 64.9412L592.07 90.3808C580.392 96.8173 563.422 85.0686 556.947 73.4121C544.436 50.8908 516.037 42.7756 493.516 55.2864L472.433 66.9977C465.85 70.6549 457.548 68.2448 453.946 61.6309C450.644 55.5679 452.872 48.0807 456.09 41.973C459.827 34.8821 460.185 26.1488 456.287 18.4546C449.899 5.84494 434.499 0.801211 421.889 7.18914L323.572 56.9953ZM447.811 509.535C458.115 503.671 461.714 490.565 455.851 480.261C449.987 469.957 436.881 466.357 426.577 472.221L424.323 473.503C414.019 479.367 410.42 492.473 416.283 502.777C422.147 513.081 435.253 516.681 445.557 510.817L447.811 509.535ZM695.31 189.742C699.761 197.563 697.029 207.512 689.208 211.962L686.954 213.245C679.133 217.695 669.185 214.963 664.734 207.142C660.284 199.321 663.016 189.373 670.837 184.922L673.09 183.64C680.911 179.189 690.86 181.921 695.31 189.742Z" fill="#FF4A4A"/>
</svg>
