<svg width="205" height="133" viewBox="0 0 205 133" fill="none" xmlns="http://www.w3.org/2000/svg">
<path opacity="0.35" d="M101.176 62.0127V64.9509C100.866 64.9509 100.114 64.8539 99.5781 64.8539C98.9084 64.8539 98.2461 64.8539 96.7064 64.9509C95.1324 65.0499 95 65.8969 95 66.2274C95 66.6852 95.171 67.3171 95.7963 67.6297C96.8333 68.1482 97.5413 67.8472 98.9455 67.8255C100.069 67.8083 100.895 67.889 101.176 67.9754V68.9908C101.176 69.3796 101.176 71.432 101.068 72.2313C100.96 73.0306 100.985 73.6356 101.417 73.83C101.849 74.0244 102.752 74.2099 103.401 73.83C103.948 73.5096 103.948 72.361 103.948 71.2376C103.948 70.3389 103.854 68.7027 103.854 67.9754C104.193 67.9754 105.072 67.9433 105.607 67.9754C106.673 68.0392 107.916 68.1914 108.456 68.1914C109.125 68.1914 109.74 67.7966 109.956 66.7812C110.172 65.7658 109.541 65.3562 109.033 65.2354C108.51 65.1112 107.289 64.9509 106.382 64.9509C105.656 64.9509 104.488 64.9761 103.948 65.0121C103.948 64.7874 104.006 64.2768 104.006 63.309C104.006 62.0992 103.923 60.4848 103.923 60.0095C103.923 59.5342 103.509 59.053 102.796 59.0098C102.083 58.9666 101.695 59.057 101.351 59.4601C100.982 59.8928 101.176 61.1054 101.176 62.0127Z" fill="#C9DBFF"/>
</svg>
